<svg width="24" height="24" viewBox="0 0 24 24" fill="none" xmlns="http://www.w3.org/2000/svg">
<path d="M11.8764 9.45455L14.1818 11.7527V11.6364C14.1818 11.0577 13.9519 10.5028 13.5428 10.0936C13.1336 9.68442 12.5787 9.45455 12 9.45455H11.8764ZM8.74909 10.0364L9.87636 11.1636C9.84 11.3164 9.81818 11.4691 9.81818 11.6364C9.81818 12.215 10.0481 12.77 10.4572 13.1791C10.8664 13.5883 11.4213 13.8182 12 13.8182C12.16 13.8182 12.32 13.7964 12.4727 13.76L13.6 14.8873C13.1127 15.1273 12.5745 15.2727 12 15.2727C11.0356 15.2727 10.1107 14.8896 9.4287 14.2077C8.74675 13.5257 8.36364 12.6008 8.36364 11.6364C8.36364 11.0618 8.50909 10.5236 8.74909 10.0364ZM4.72727 6.01455L6.38545 7.67273L6.71273 8C5.51273 8.94546 4.56727 10.1818 4 11.6364C5.25818 14.8291 8.36364 17.0909 12 17.0909C13.1273 17.0909 14.2036 16.8727 15.1855 16.48L15.4982 16.7855L17.6218 18.9091L18.5455 17.9855L5.65091 5.09091M12 8C12.9644 8 13.8893 8.38312 14.5713 9.06507C15.2532 9.74702 15.6364 10.6719 15.6364 11.6364C15.6364 12.1018 15.5418 12.5527 15.3745 12.96L17.5055 15.0909C18.5964 14.1818 19.4691 12.9891 20 11.6364C18.7418 8.44364 15.6364 6.18182 12 6.18182C10.9818 6.18182 10.0073 6.36364 9.09091 6.69091L10.6691 8.25455C11.0836 8.09455 11.5273 8 12 8Z" fill="#929292"/>
</svg>
