<svg width="4" height="19" viewBox="0 0 4 19" fill="none" xmlns="http://www.w3.org/2000/svg">
<path d="M2 14.7778C2.53043 14.7778 3.03914 15.0002 3.41421 15.3961C3.78929 15.792 4 16.329 4 16.8889C4 17.4488 3.78929 17.9858 3.41421 18.3817C3.03914 18.7776 2.53043 19 2 19C1.46957 19 0.96086 18.7776 0.585787 18.3817C0.210714 17.9858 0 17.4488 0 16.8889C0 16.329 0.210714 15.792 0.585787 15.3961C0.96086 15.0002 1.46957 14.7778 2 14.7778ZM2 7.38889C2.53043 7.38889 3.03914 7.61131 3.41421 8.00722C3.78929 8.40313 4 8.9401 4 9.5C4 10.0599 3.78929 10.5969 3.41421 10.9928C3.03914 11.3887 2.53043 11.6111 2 11.6111C1.46957 11.6111 0.96086 11.3887 0.585787 10.9928C0.210714 10.5969 0 10.0599 0 9.5C0 8.9401 0.210714 8.40313 0.585787 8.00722C0.96086 7.61131 1.46957 7.38889 2 7.38889ZM2 0C2.53043 0 3.03914 0.22242 3.41421 0.61833C3.78929 1.01424 4 1.55121 4 2.11111C4 2.67101 3.78929 3.20798 3.41421 3.60389C3.03914 3.9998 2.53043 4.22222 2 4.22222C1.46957 4.22222 0.96086 3.9998 0.585787 3.60389C0.210714 3.20798 0 2.67101 0 2.11111C0 1.55121 0.210714 1.01424 0.585787 0.61833C0.96086 0.22242 1.46957 0 2 0Z" fill="#9C9C9C"/>
</svg>
