<svg width="20" height="20" viewBox="0 0 20 20" fill="none" xmlns="http://www.w3.org/2000/svg">
<circle cx="10" cy="10" r="10" fill="black"/>
<path d="M8.24992 12.4325L6.22576 10.4083C6.11669 10.2992 5.96875 10.238 5.81451 10.238C5.66026 10.238 5.51233 10.2992 5.40326 10.4083C5.29419 10.5174 5.23291 10.6653 5.23291 10.8196C5.23291 10.8959 5.24795 10.9716 5.27718 11.0421C5.30641 11.1127 5.34925 11.1768 5.40326 11.2308L7.84159 13.6692C8.06909 13.8967 8.43659 13.8967 8.66409 13.6692L14.8358 7.49748C14.9448 7.38841 15.0061 7.24048 15.0061 7.08623C15.0061 6.93199 14.9448 6.78405 14.8358 6.67498C14.7267 6.56591 14.5788 6.50464 14.4245 6.50464C14.2703 6.50464 14.1223 6.56591 14.0133 6.67498L8.24992 12.4325Z" fill="white"/>
</svg>
