<svg width="210" height="210" viewBox="0 0 210 210" fill="none" xmlns="http://www.w3.org/2000/svg">
<circle cx="105" cy="105" r="105" fill="#23CB85"/>
<path d="M132.516 125.251C132.751 126.518 132.596 127.829 132.068 129.018C131.541 130.207 130.666 131.219 129.553 131.928C128.44 132.637 127.14 133.01 125.817 133C124.494 132.991 123.207 132.598 122.12 131.873C121.032 131.148 120.193 130.123 119.708 128.927C119.222 127.73 119.113 126.417 119.394 125.154C119.674 123.89 120.332 122.732 121.283 121.826C122.235 120.92 123.438 120.308 124.74 120.066C126.486 119.741 128.286 120.105 129.744 121.077C131.203 122.049 132.199 123.551 132.516 125.251ZM85.2389 127.412C83.9368 127.655 82.7338 128.267 81.7822 129.173C80.8305 130.079 80.1729 131.236 79.8924 132.5C79.6119 133.764 79.7213 135.077 80.2065 136.273C80.6918 137.469 81.5312 138.495 82.6187 139.22C83.7061 139.945 84.9927 140.337 86.3158 140.347C87.6389 140.357 88.939 139.984 90.0518 139.275C91.1645 138.566 92.0399 137.553 92.5673 136.365C93.0947 135.176 93.2503 133.865 93.0145 132.597C92.6983 130.898 91.7015 129.396 90.2433 128.424C88.7851 127.451 86.9849 127.088 85.2389 127.412ZM160.078 78.1261L168.025 120.857C169.91 131.055 167.563 141.605 161.498 150.192C155.434 158.779 146.147 164.702 135.677 166.661L91.7865 174.824C81.3117 176.761 70.5169 174.573 61.7706 168.74C53.0242 162.908 47.0407 153.907 45.1327 143.713L37.1853 100.983C36.402 96.8184 37.208 92.5037 39.4517 88.8495C41.6954 85.1954 45.2224 82.4536 49.3698 81.1392C53.5172 79.8249 57.9994 80.0286 61.974 81.7121C65.9487 83.3956 69.1421 86.4429 70.954 90.2813L124.719 80.2815C125.03 76.0483 126.914 72.0566 130.018 69.0566C133.122 66.0567 137.231 64.2551 141.573 63.9903C145.916 63.7256 150.193 65.016 153.6 67.6191C157.008 70.2221 159.311 73.9586 160.078 78.1261ZM145.285 120.665C144.442 116.132 141.784 112.129 137.895 109.536C134.007 106.942 129.206 105.972 124.55 106.838L80.6601 115.001C76.004 115.867 71.8735 118.499 69.1772 122.316C66.481 126.134 65.4399 130.826 66.283 135.359L67.0778 139.632C67.9209 144.165 70.5791 148.168 74.4677 150.762C78.3563 153.355 83.1567 154.325 87.8128 153.459L131.703 145.296C136.359 144.43 140.49 141.798 143.186 137.981C145.882 134.163 146.923 129.471 146.08 124.938L145.285 120.665Z" fill="black"/>
<circle cx="174.5" cy="43.5" r="17.5" fill="black"/>
<circle cx="17.5" cy="60.5" r="17.5" fill="black"/>
<ellipse cx="85" cy="131.5" rx="12" ry="10.5" fill="#23CB85"/>
<ellipse cx="125" cy="125.5" rx="12" ry="10.5" fill="#23CB85"/>
<path d="M115.387 132.766C113.609 130.653 113.882 127.498 115.995 125.721L132.831 111.56L136.693 116.151L116.031 133.531L115.387 132.766Z" fill="black"/>
<path d="M114.164 129.139L140.955 125.791L141.699 131.745L118.877 134.597C116.685 134.871 114.686 133.316 114.412 131.124L114.164 129.139Z" fill="black"/>
<path d="M97.3616 135.226C97.7913 132.498 95.9101 130.085 93.1599 129.837L74.8973 128.188L74.0966 133.272L97.3389 135.37L97.3616 135.226Z" fill="black"/>
<path d="M96.5498 131.6L75.0853 142.279L77.2222 146.798L95.1054 137.901C97.0833 136.917 97.9212 134.501 96.9769 132.503L96.5498 131.6Z" fill="black"/>
</svg>
