<svg width="28" height="24" viewBox="0 0 28 24" fill="none" xmlns="http://www.w3.org/2000/svg">
<path d="M20 14.0904C20 14.3998 19.912 14.7023 19.7472 14.9596C19.5824 15.217 19.3481 15.4175 19.074 15.5359C18.7999 15.6544 18.4983 15.6853 18.2074 15.625C17.9164 15.5646 17.6491 15.4156 17.4393 15.1967C17.2296 14.9779 17.0867 14.6991 17.0288 14.3956C16.9709 14.0921 17.0006 13.7775 17.1142 13.4916C17.2277 13.2057 17.42 12.9613 17.6666 12.7894C17.9133 12.6174 18.2033 12.5257 18.5 12.5257C18.8978 12.5257 19.2794 12.6905 19.5607 12.984C19.842 13.2774 20 13.6754 20 14.0904ZM9.5 12.5257C9.20333 12.5257 8.91332 12.6174 8.66665 12.7894C8.41997 12.9613 8.22772 13.2057 8.11418 13.4916C8.00065 13.7775 7.97095 14.0921 8.02882 14.3956C8.0867 14.6991 8.22956 14.9779 8.43934 15.1967C8.64912 15.4156 8.9164 15.5646 9.20737 15.625C9.49834 15.6853 9.79994 15.6544 10.074 15.5359C10.3481 15.4175 10.5824 15.217 10.7472 14.9596C10.912 14.7023 11 14.3998 11 14.0904C11 13.6754 10.842 13.2774 10.5607 12.984C10.2794 12.6905 9.89783 12.5257 9.5 12.5257ZM28 4.18071V14.6119C27.9973 17.1009 27.0483 19.4872 25.361 21.2472C23.6738 23.0073 21.3861 23.9972 19 24H9C6.61387 23.9972 4.32622 23.0073 2.63897 21.2472C0.951716 19.4872 0.00265461 17.1009 7.75703e-06 14.6119V4.18071C-0.00191132 3.16372 0.352311 2.18101 0.996102 1.41727C1.63989 0.653537 2.52892 0.161362 3.49611 0.0332494C4.46329 -0.0948637 5.44203 0.149905 6.24839 0.721555C7.05474 1.2932 7.63318 2.15237 7.875 3.13759H20.125C20.3668 2.15237 20.9453 1.2932 21.7516 0.721555C22.558 0.149905 23.5367 -0.0948637 24.5039 0.0332494C25.4711 0.161362 26.3601 0.653537 27.0039 1.41727C27.6477 2.18101 28.0019 3.16372 28 4.18071ZM23 13.5688C23 12.4622 22.5786 11.4009 21.8284 10.6184C21.0783 9.83591 20.0609 9.39631 19 9.39631H9C7.93914 9.39631 6.92172 9.83591 6.17158 10.6184C5.42143 11.4009 5 12.4622 5 13.5688V14.6119C5 15.7185 5.42143 16.7798 6.17158 17.5623C6.92172 18.3448 7.93914 18.7844 9 18.7844H19C20.0609 18.7844 21.0783 18.3448 21.8284 17.5623C22.5786 16.7798 23 15.7185 23 14.6119V13.5688Z" fill="#929292"/>
</svg>
