<svg width="24" height="24" viewBox="0 0 24 24" fill="none" xmlns="http://www.w3.org/2000/svg">
<path d="M12 16.125C12.3978 16.125 12.7794 15.967 13.0607 15.6857C13.342 15.4044 13.5 15.0228 13.5 14.625C13.5 14.2272 13.342 13.8456 13.0607 13.5643C12.7794 13.283 12.3978 13.125 12 13.125C11.6022 13.125 11.2206 13.283 10.9393 13.5643C10.658 13.8456 10.5 14.2272 10.5 14.625C10.5 15.0228 10.658 15.4044 10.9393 15.6857C11.2206 15.967 11.6022 16.125 12 16.125ZM16.5 9.375C16.8978 9.375 17.2794 9.53304 17.5607 9.81434C17.842 10.0956 18 10.4772 18 10.875V18.375C18 18.7728 17.842 19.1544 17.5607 19.4357C17.2794 19.717 16.8978 19.875 16.5 19.875H7.5C7.10218 19.875 6.72064 19.717 6.43934 19.4357C6.15804 19.1544 6 18.7728 6 18.375V10.875C6 10.4772 6.15804 10.0956 6.43934 9.81434C6.72064 9.53304 7.10218 9.375 7.5 9.375H8.25V7.875C8.25 6.88044 8.64509 5.92661 9.34835 5.22335C10.0516 4.52009 11.0054 4.125 12 4.125C12.4925 4.125 12.9801 4.222 13.4351 4.41045C13.89 4.59891 14.3034 4.87513 14.6517 5.22335C14.9999 5.57157 15.2761 5.98497 15.4645 6.43994C15.653 6.89491 15.75 7.38254 15.75 7.875V9.375H16.5ZM12 5.625C11.4033 5.625 10.831 5.86205 10.409 6.28401C9.98705 6.70597 9.75 7.27826 9.75 7.875V9.375H14.25V7.875C14.25 7.27826 14.0129 6.70597 13.591 6.28401C13.169 5.86205 12.5967 5.625 12 5.625Z" fill="#23CB85"/>
</svg>
