<svg width="22" height="29" viewBox="0 0 22 29" fill="none" xmlns="http://www.w3.org/2000/svg">
<path d="M2 23.5357V25.3929C2 25.8854 2.18964 26.3578 2.52721 26.7061C2.86477 27.0543 3.32261 27.25 3.8 27.25H18.2C18.6774 27.25 19.1352 27.0543 19.4728 26.7061C19.8104 26.3578 20 25.8854 20 25.3929V23.5357C20 22.0581 19.4311 20.641 18.4184 19.5961C17.4057 18.5513 16.0322 17.9643 14.6 17.9643H7.4C5.96783 17.9643 4.59432 18.5513 3.58162 19.5961C2.56893 20.641 2 22.0581 2 23.5357ZM16.4 6.82143C16.4 8.29906 15.8311 9.71618 14.8184 10.761C13.8057 11.8059 12.4322 12.3929 11 12.3929C9.56783 12.3929 8.19432 11.8059 7.18162 10.761C6.16893 9.71618 5.6 8.29906 5.6 6.82143C5.6 5.34379 6.16893 3.92668 7.18162 2.88183C8.19432 1.83699 9.56783 1.25 11 1.25C12.4322 1.25 13.8057 1.83699 14.8184 2.88183C15.8311 3.92668 16.4 5.34379 16.4 6.82143Z" stroke="#929292" stroke-width="2.5"/>
</svg>
