<svg width="340" height="185" viewBox="0 0 340 185" fill="none" xmlns="http://www.w3.org/2000/svg">
<rect width="340" height="185" rx="5" fill="#D9D9D9"/>
<rect x="11.3889" y="10.6904" width="316.278" height="163.619" rx="4" fill="#D9D9D9" stroke="white" stroke-width="2"/>
<g clip-path="url(#clip0_236_1973)">
<path d="M138.841 73.6148C138.841 71.658 139.675 69.7814 141.158 68.3978C142.641 67.0141 144.653 66.2368 146.751 66.2368H194.209C196.307 66.2368 198.319 67.0141 199.802 68.3978C201.286 69.7814 202.119 71.658 202.119 73.6148V110.505C202.119 112.461 201.286 114.338 199.802 115.722C198.319 117.105 196.307 117.883 194.209 117.883H146.751C144.653 117.883 142.641 117.105 141.158 115.722C139.675 114.338 138.841 112.461 138.841 110.505V73.6148ZM142.796 106.816V110.505C142.796 111.483 143.213 112.421 143.954 113.113C144.696 113.805 145.702 114.194 146.751 114.194H194.209C195.258 114.194 196.264 113.805 197.006 113.113C197.747 112.421 198.164 111.483 198.164 110.505V97.5932L183.227 90.4108C182.856 90.2375 182.436 90.1773 182.026 90.2389C181.617 90.3005 181.238 90.4806 180.945 90.7538L166.272 104.44L155.752 97.9031C155.372 97.6672 154.917 97.5611 154.463 97.6028C154.009 97.6445 153.584 97.8314 153.261 98.1318L142.796 106.816ZM162.57 82.8373C162.57 81.3697 161.945 79.9622 160.833 78.9245C159.72 77.8868 158.211 77.3038 156.638 77.3038C155.065 77.3038 153.556 77.8868 152.443 78.9245C151.331 79.9622 150.706 81.3697 150.706 82.8373C150.706 84.3048 151.331 85.7123 152.443 86.75C153.556 87.7878 155.065 88.3707 156.638 88.3707C158.211 88.3707 159.72 87.7878 160.833 86.75C161.945 85.7123 162.57 84.3048 162.57 82.8373Z" fill="white"/>
</g>
<defs>
<clipPath id="clip0_236_1973">
<rect width="63.2778" height="59.0238" fill="white" transform="translate(138.833 62.5479)"/>
</clipPath>
</defs>
</svg>
