<svg width="25" height="25" viewBox="0 0 25 25" fill="none" xmlns="http://www.w3.org/2000/svg">
<circle cx="12.5" cy="12.5" r="12.5" fill="black"/>
<path d="M6.125 18.875V15.8646L15.475 6.53229C15.6167 6.40243 15.7732 6.30208 15.9446 6.23125C16.116 6.16042 16.296 6.125 16.4844 6.125C16.6728 6.125 16.8558 6.16042 17.0333 6.23125C17.2109 6.30208 17.3644 6.40833 17.4938 6.55L18.4677 7.54167C18.6094 7.67153 18.7128 7.825 18.778 8.00208C18.8431 8.17917 18.8755 8.35625 18.875 8.53333C18.875 8.72222 18.8427 8.90237 18.778 9.07379C18.7133 9.24521 18.6098 9.40151 18.4677 9.54271L9.13542 18.875H6.125ZM16.4667 9.525L17.4583 8.53333L16.4667 7.54167L15.475 8.53333L16.4667 9.525Z" fill="white"/>
</svg>
