<svg width="20" height="20" viewBox="0 0 20 20" fill="none" xmlns="http://www.w3.org/2000/svg">
<circle cx="10" cy="10" r="10" fill="black"/>
<path d="M4.8999 15.9V13.4916L12.3799 6.02578C12.4932 5.9219 12.6185 5.84162 12.7556 5.78495C12.8927 5.72828 13.0367 5.69995 13.1874 5.69995C13.3381 5.69995 13.4845 5.72828 13.6266 5.78495C13.7686 5.84162 13.8914 5.92662 13.9949 6.03995L14.7741 6.83328C14.8874 6.93717 14.9701 7.05995 15.0223 7.20162C15.0744 7.34328 15.1003 7.48495 15.0999 7.62662C15.0999 7.77773 15.074 7.92185 15.0223 8.05898C14.9705 8.19612 14.8878 8.32116 14.7741 8.43412L7.30824 15.9H4.8999ZM13.1732 8.41995L13.9666 7.62662L13.1732 6.83328L12.3799 7.62662L13.1732 8.41995Z" fill="white"/>
</svg>
