<svg width="24" height="30" viewBox="0 0 24 30" fill="none" xmlns="http://www.w3.org/2000/svg">
<path d="M12 5.49998V1.31498C12 0.639985 11.19 0.309985 10.725 0.789985L5.02504 6.47499C4.72504 6.77498 4.72504 7.23998 5.02504 7.53998L10.71 13.225C11.19 13.69 12 13.36 12 12.685V8.49998C17.595 8.49998 22.02 13.63 20.79 19.435C20.085 22.84 17.325 25.585 13.935 26.29C8.58004 27.415 3.81004 23.74 3.09004 18.775C3.03657 18.4224 2.85923 18.1004 2.58984 17.8668C2.32045 17.6331 1.97663 17.5031 1.62004 17.5C0.720042 17.5 4.19989e-05 18.295 0.120042 19.195C1.05004 25.78 7.32004 30.655 14.415 29.275C19.095 28.36 22.86 24.595 23.775 19.915C25.26 12.22 19.41 5.49998 12 5.49998Z" fill="#929292"/>
</svg>
