<svg width="24" height="30" viewBox="0 0 24 30" fill="none" xmlns="http://www.w3.org/2000/svg">
<path d="M12 5.4998V1.3148C12 0.639802 11.19 0.309802 10.725 0.789802L5.02504 6.4748C4.72504 6.7748 4.72504 7.2398 5.02504 7.5398L10.71 13.2248C11.19 13.6898 12 13.3598 12 12.6848V8.4998C17.595 8.4998 22.02 13.6298 20.79 19.4348C20.085 22.8398 17.325 25.5848 13.935 26.2898C8.58004 27.4148 3.81004 23.7398 3.09004 18.7748C3.03657 18.4222 2.85923 18.1002 2.58984 17.8666C2.32045 17.6329 1.97663 17.5029 1.62004 17.4998C0.720042 17.4998 4.19989e-05 18.2948 0.120042 19.1948C1.05004 25.7798 7.32004 30.6548 14.415 29.2748C19.095 28.3598 22.86 24.5948 23.775 19.9148C25.26 12.2198 19.41 5.4998 12 5.4998Z" fill="#23CB85"/>
</svg>
