<svg width="210" height="210" viewBox="0 0 210 210" fill="none" xmlns="http://www.w3.org/2000/svg">
<circle cx="105" cy="105" r="105" fill="#23CB85"/>
<path d="M131.783 134.224C131.839 135.513 131.503 136.789 130.815 137.893C130.127 138.996 129.119 139.877 127.918 140.424C126.717 140.971 125.378 141.159 124.069 140.965C122.76 140.771 121.541 140.203 120.565 139.333C119.589 138.463 118.901 137.331 118.587 136.079C118.274 134.827 118.348 133.511 118.802 132.299C119.256 131.086 120.069 130.031 121.137 129.267C122.206 128.503 123.483 128.064 124.806 128.006C126.58 127.928 128.312 128.539 129.62 129.705C130.929 130.871 131.707 132.497 131.783 134.224ZM84.6662 129.774C83.3431 129.832 82.0665 130.271 80.9978 131.035C79.9292 131.8 79.1166 132.854 78.6626 134.067C78.2087 135.279 78.1339 136.595 78.4477 137.847C78.7615 139.099 79.4497 140.231 80.4255 141.101C81.4012 141.971 82.6205 142.539 83.9293 142.733C85.2381 142.927 86.5776 142.739 87.7783 142.192C88.979 141.645 89.9871 140.764 90.675 139.661C91.3629 138.557 91.6998 137.281 91.6431 135.993C91.567 134.265 90.7892 132.639 89.4808 131.473C88.1724 130.307 86.4405 129.696 84.6662 129.774ZM165.645 91.4027L167.558 134.824C168.003 145.185 164.207 155.305 157.005 162.963C149.803 170.621 139.781 175.191 129.14 175.671L84.5401 177.636C73.8975 178.093 63.5132 174.421 55.6654 167.426C47.8176 160.432 43.1473 150.685 42.6791 140.324L40.7666 96.9032C40.5715 92.6702 41.9712 88.51 44.7024 85.2044C47.4337 81.8988 51.3085 79.6754 55.5986 78.9521C59.8887 78.2288 64.2987 79.0554 67.9999 81.2766C71.701 83.4977 74.4383 86.9605 75.6975 91.0141L130.332 88.6076C131.23 84.459 133.652 80.769 137.144 78.231C140.635 75.693 144.955 74.4819 149.293 74.8252C153.63 75.1685 157.685 77.0426 160.696 80.0952C163.708 83.1479 165.468 87.169 165.645 91.4027ZM145.067 131.464C144.864 126.858 142.79 122.523 139.301 119.413C135.812 116.303 131.193 114.673 126.462 114.881L81.8625 116.846C77.1311 117.054 72.674 119.084 69.4719 122.489C66.2697 125.893 64.5848 130.394 64.7877 135L64.9789 139.342C65.1818 143.949 67.256 148.284 70.7451 151.393C74.2341 154.503 78.8524 156.133 83.5838 155.925L128.183 153.96C132.915 153.752 137.372 151.722 140.574 148.318C143.776 144.913 145.461 140.413 145.258 135.806L145.067 131.464Z" fill="black"/>
<circle cx="170.5" cy="185.5" r="17.5" fill="black"/>
<circle cx="27.5" cy="178.5" r="17.5" fill="black"/>
</svg>
